# xmcd
# 
# Track frame offsets:
#     150
#     21508
#     31384
#     50752
#     66393
#     87494
#     107328
#     121742
#     139333
#     144396
#     155802
#     162387
# 
# Disc length: 2419
# 
# Revision: 0
# Processed by: cddbd v1.5.2PL0 Copyright (c) Steve Scherf et al.
# Submitted via: fre:ac v1.0.31
# 
DISCID=ae09710c
DTITLE=Spielleut Cantoris - Das schönste Mädchen
DYEAR=2007
DGENRE=Folk
TTITLE0=Meienzit
TTITLE1=Wol Auff
TTITLE2=Här Kommer Pippi Langstrump
TTITLE3=Noble Cockrel
TTITLE4=Allererst Lebe Ich Mir Werde
TTITLE5=Unter Den Linden
TTITLE6=Nu Rue Mit Sorgen
TTITLE7=Walzer - Schottisch
TTITLE8=In Dunkler Nacht
TTITLE9=Mazurka
TTITLE10=Al Fol
TTITLE11=Das Schönste Mädchen
EXTD=
EXTT0=
EXTT1=
EXTT2=
EXTT3=
EXTT4=
EXTT5=
EXTT6=
EXTT7=
EXTT8=
EXTT9=
EXTT10=
EXTT11=
PLAYORDER=
